.
 
http://www.scenetime.com    -  Hottest private tracker on the net. !!!

New release on http://www.scenetime.com

        Seed back for speed


...................................NFO:................................................. 

                  
                                                  
                               
                                           
                   
                    
                         
                        
                      
                   
                   
                       
                           
                           
                                
                                       
                                    
                              SINCE 2011 
  




[b][size=4][color=red]i[/color][color=grey]N[/color][color=red]i[/color][color=grey]T[/color][color=red]i[/color][color=grey]ALan[/color][color=blue]I[/color][color=grey]me[/color] Presents............[/size][/b]


[center][size=7][b][i][color=darkorange]Galaxy Express 999 The Movie[/color][/i][/b][/size]
[IMG]http://i.imgur.com/g7UiG.png[/IMG][/center]


[IMG]http://i.imgur.com/FDxr4.png[/IMG]

[b][color=darkorange]General[/color]
Encoder                          : unsentletter [iNiTiALanIme]
Language                         : English 
Complete name                    : Galaxy Express 999 The Movie [iNiTiALanIme ENCODE]\Galaxy Express 999 [iNiTiALanIme ENCODE].avi
Format                           : AVI
Format/Info                      : Audio Video Interleave
Format profile                   : OpenDML
File size                        : 1.76 GiB
Duration                         : 2h 8mn
Overall bit rate                 : 1 968 Kbps
Movie name                       : Galaxy Express 999 [iNiTiALanIme ENCODE]
Writing application              : Lavf52.78.4
Original source form/Name        : GE999_MOVIE_1

[color=darkorange]Video[/color]
ID                               : 0
Format                           : AVC
Format/Info                      : Advanced Video Codec
Codec ID                         : H264
Duration                         : 2h 8mn
Bit rate                         : 1 765 Kbps
Width                            : 720 pixels
Height                           : 424 pixels
Display aspect ratio             : 1.698
Frame rate                       : 23.976 fps
Color space                      : YUV
Chroma subsampling               : 4:2:0
Bits/(Pixel*Frame)               : 0.241
Stream size                      : 1.58 GiB (90%)

[color=darkoarange]Audio[/color]
ID                               : 1
Format                           : AC-3
Format/Info                      : Audio Coding 3
Mode extension                   : CM (complete main)
Codec ID                         : 2000
Duration                         : 58mn 7s
Bit rate mode                    : Constant
Bit rate                         : 192 Kbps
Channel(s)                       : 2 channels
Channel positions                : Front: L R
Sampling rate                    : 48.0 KHz
Bit depth                        : 16 bits
Stream size                      : 79.8 MiB (4%)
Alignment                        : Aligned on interleaves
Interleave, duration             : 71 ms (1.69 video frames)
Interleave, preload duration     : 32 ms[/b]







[IMG]http://i.imgur.com/r6AUo.png[/IMG]

Tetsuro Hoshino, orphaned by the Cyborgs, lives in a slum in the shadow of their megapolis. He steals a pass for Galaxy Express 999, and is saved by a mysterious woman called Maitre, a living image of his mother who had been killed by the Cyborgs. Wearing a special pendant, he sets out for Andromeda where he can obtain eternal life and avenge his parents' death. On his odyssey, he meets a gallery of fantastic characters that help him exterminate the evil Star of Andromeda which had been giving mechanical bodies to rich human beings




[IMG]http://i.imgur.com/KvHYd.png[/IMG]

Masako Nozawa...Tetsur Hoshino (voice) 
Masako Ikeda...Maetel (voice) 
Yko Asagami...Claire (voice) 
Miyoko As...Tochir's Mother (voice) 
Toshiko Fujita...Shadow (voice) 
Banj Ginga...Captain of the Guard (voice) (as Takashi Tanaka) 
Yasuo Hisamatsu...Antares (voice)
Makio Inoue...Captain Harlock (voice) 
Tatsuya J... Narrator (voice)
Ryko Kinomiya...Queen Promethium (voice) 
Kaneta Kimotsuki...Conductor (voice) 
Gor Naya...Doctor Ban (voice) 
Noriko Ohara...Ryzu / Mm (voice) 
Ryji Saikachi...Bartender (voice) 
Hidekatsu Shibata...Kikai Hakushaku (Count Mecha) (voice) 



[IMG]http://i.imgur.com/Dyf12.png[/IMG]



[IMG]http://i.imgur.com/cOWRT.png[/IMG]

[IMG]http://i.imgur.com/knvWM.png[/IMG]
[IMG]http://i.imgur.com/duetZ.png[/IMG]
[IMG]http://i.imgur.com/Q227B.png[/IMG]
[IMG]http://i.imgur.com/62omu.png[/IMG]
[IMG]http://i.imgur.com/pc6ho.png[/IMG]
[IMG]http://i.imgur.com/GyLoM.png[/IMG]
[IMG]http://i.imgur.com/NdqXC.png[/IMG]
[IMG]http://i.imgur.com/dnup8.png[/IMG]
[IMG]http://i.imgur.com/ST2Ad.png[/IMG]
[IMG]http://i.imgur.com/Hz7Ye.png[/IMG]



[IMG]http://i.imgur.com/eyvAn.png[/IMG]

[color=green]all encodes by unsentletter are done in a generic format to work with **XBOX360**, PS3, **Some Media Players**, Android and Symbian. 
**tested streaming to XBOX360 & Media Player using Vuze Transcoder and Wild Media Server... For best results I recomend Vuze Transcoder** [/color]



[IMG]http://i.imgur.com/xxzGO.png[/IMG]


[b][size=4][color=red]i[/color][color=grey]N[/color][color=red]i[/color][color=grey]T[/color][color=red]i[/color][color=grey]ALan[/color][color=blue]I[/color][color=grey]me[/color][/size][/b] [color=darkorange]gives greets to[/color] [color=blue]unsentletter, bigspawn, jaiwalla, deadlySniper, amartis, paranoid53, DiVERSiTY RG, BHRG, PRESTiGE RG, all anime groups and fansub groups, all the staff at our upload sites & all the people who make p2p what it is[/color]
[color=red]Remember p[/color][color=blue]2[/color][color=red]p is about more than free movies and music its a community be involved!! Dont Hit and Run !! Seed back what you leech!![/color]



[IMG]http://i.imgur.com/mhY4H.png[/IMG]


[b][size=4][color=red]i[/color][color=grey]N[/color][color=red]i[/color][color=grey]T[/color][color=red]i[/color][color=grey]ALan[/color][color=blue]I[/color][color=grey]me[/color][/size][/b][color=darkorange] Is looking for members. Have you got something to offer? DO you want to be part of our team?  Wanted -anime sources- encoders - seedbox's anything else you may have to offer -  contact us at[/color][color=cyan] initialanime@yahoo.com.au[/color]



[IMG]http://i.imgur.com/7m52g.png[/IMG]







INITIALANIME 2011